<?xml version="1.0" encoding="UTF-8" standalone="no"?><!DOCTYPE svg PUBLIC "-//W3C//DTD SVG 1.1//EN" "http://www.w3.org/Graphics/SVG/1.1/DTD/svg11.dtd"><svg width="100%" height="100%" viewBox="0 0 349 25" version="1.1" xmlns="http://www.w3.org/2000/svg" xmlns:xlink="http://www.w3.org/1999/xlink" xml:space="preserve" xmlns:serif="http://www.serif.com/" style="fill-rule:evenodd;clip-rule:evenodd;stroke-linejoin:round;stroke-miterlimit:2;"><path d="M348.116,13.878c-0.005,-0.563 0.01,-2.868 -0,-3.669l-78.391,0c-36.081,-1.44 -64.881,-3.206 -64.881,-3.206c-0,0 -2.397,1.769 -5.631,3.206l-12.207,0c2.817,3.669 2.814,0.003 0.007,3.669l12.218,0c3.272,1.441 5.613,3.213 5.613,3.213c-0,-0 28.978,-1.772 65.222,-3.213l78.05,0Z" style="fill:#613b21;fill-rule:nonzero;"/><path d="M161.1,13.878c-2.782,-3.667 -2.78,-0 0.006,-3.669l-12.203,0c-3.24,-1.437 -5.637,-3.206 -5.637,-3.206c-0,0 -23.163,1.766 -55.36,3.206l-87.906,0c0.001,0.347 0.001,3.441 0,3.669l87.597,0c32.359,1.441 55.669,3.213 55.669,3.213c-0,-0 2.343,-1.772 5.618,-3.213l12.216,0Z" style="fill:#613b21;fill-rule:nonzero;"/><path d="M162.012,12.047l12.047,12.047l12.044,-12.047l-12.044,-12.047l-12.047,12.047Z" style="fill:#613b21;fill-rule:nonzero;"/></svg>