<?xml version="1.0" encoding="UTF-8" standalone="no"?><!DOCTYPE svg PUBLIC "-//W3C//DTD SVG 1.1//EN" "http://www.w3.org/Graphics/SVG/1.1/DTD/svg11.dtd"><svg width="100%" height="100%" viewBox="0 0 211 59" version="1.1" xmlns="http://www.w3.org/2000/svg" xmlns:xlink="http://www.w3.org/1999/xlink" xml:space="preserve" xmlns:serif="http://www.serif.com/" style="fill-rule:evenodd;clip-rule:evenodd;stroke-linejoin:round;stroke-miterlimit:2;"><g id="Layer-1" serif:id="Layer 1"><path id="path513" d="M172.212,56.907c-6.111,-1.742 -12.091,-4.754 -14.531,-7.319c-2.581,-2.712 -2.364,-3.709 0.276,-1.269c6.667,6.164 14.573,9.216 23.838,9.203c7.559,-0.01 13.58,-1.965 19.052,-6.187c5.827,-4.495 8.401,-10.028 8.066,-17.341c-0.531,-11.584 -10.08,-20.77 -24.386,-23.457c-10.698,-2.009 -29.445,-0.718 -45.844,3.157c-3.867,0.914 -17.916,5.314 -31.219,9.78c-32.144,10.789 -40.786,13.543 -49.53,15.788c-7.704,1.978 -18.589,3.642 -23.826,3.642l-3.091,0l2.224,2.279c8.46,8.673 23.236,9.745 45.254,3.283c3.249,-0.953 15.399,-5.344 27,-9.758c39.599,-15.066 55.836,-18.58 70.313,-15.217c6.244,1.451 13.535,5.197 16.644,8.551c2.228,2.405 1.533,2.856 -0.753,0.488c-6.45,-6.679 -22.722,-8.983 -36.704,-5.198c-7.403,2.005 -19.56,6.17 -45.843,15.705c-30.591,11.098 -30.85,11.174 -41.666,12.247c-14.455,1.435 -28.394,-2.252 -35.596,-10.113c-2.845,-3.104 -2.452,-2.267 -5.102,-2.267c-3.948,0 -10.959,-1.487 -14.44,-3.061c-3.72,-1.684 -9.26,-7.129 -10.905,-10.72c-1.843,-4.024 -1.937,-11.811 -0.189,-15.595c2.623,-5.677 7.591,-10.153 13.908,-12.531c2.083,-0.784 3.783,-1.017 3.466,-0.906c-7.792,2.75 -14.063,7.252 -16.928,14.725c-1.241,3.237 -1.145,9.411 0.022,12.925c2.589,7.793 12.316,13.476 23.067,13.476l3.612,-0l-1.353,-2.546c-4.602,-8.656 -2.273,-19.978 5.569,-27.075c9.512,-8.608 22.409,-9.867 32.825,-3.204c1.875,1.199 3.28,2.594 3.758,3.729c0.419,0.998 0.708,1.869 0.642,1.936c-0.067,0.067 -1.689,-1.369 -3.605,-3.192c-4.484,-4.267 -11.398,-7.673 -21.421,-5.116c-8.696,2.219 -15.62,8.608 -18.405,16.488c-1.673,4.736 -1.458,12.753 2.888,18.844c0.266,0.372 13.609,-2.281 18.54,-3.711c3.094,-0.898 17.269,-5.755 31.5,-10.794c30.566,-10.824 36.603,-12.807 47.813,-15.707c14.964,-3.871 21.398,-4.739 35.437,-4.776c13.544,-0.036 17.542,0.51 26.512,3.618c16.648,5.768 25.163,21.039 19.007,34.087c-2.844,6.028 -9.909,11.477 -17.417,13.432c-4.704,1.225 -13.591,1.07 -18.479,-0.323Z" style="fill-rule:nonzero;"/></g></svg>